# xmcd
#
# Track frame offsets: 
#        150
#        12354
#        24372
#        34807
#        43801
#        56775
#        69453
#        80436
#        94117
#        105804
#        117796
#        130857
#        141806
#        153251
#        165825
#        176039
#        187052
#        199978
#        210781
#        221869
#        232446
#        243226
#        254019
#        267863
#        278911
#        292239
#        302527
#        313588
#        322771
#
# Disc length: 4436 seconds
#
# Revision: 1
# Processed by: cddbd v1.5.2PL0 Copyright (c) Steve Scherf et al.
# Submitted via: ExactAudioCopyFreeDBPlugin 1.0
#
DISCID=a211521d
DTITLE=Various Artist - The History Of Rhythm And Blues 1952-1957 (Di
DTITLE=sc 2)
DYEAR=2010
DGENRE=Blues
TTITLE0=LITTLE WILLIE LITTLEFIELD - K.C. loving  (1953)
TTITLE1=VARETTA DILLARD - Easy, easy baby  (1952)
TTITLE2=BILL HALEY and THE COMETS - Rock the joint  (1952)
TTITLE3=RUTH BROWN - Mama, he treats your daughter mean  (1953)
TTITLE4=BIG MAMA THORNTON - Hound dog  (1953)
TTITLE5=BIG MAYBELLE - Whole lotta shakin goin on  (1955)
TTITLE6=CHAMPION JACK DUPREE - Shake, baby, shake  (1953)
TTITLE7=BIG JOE TURNER - Shake, rattle and roll  (1954)
TTITLE8=PEE WEE CRAYTON - You know yeah  (1954)
TTITLE9=YOUNG JOHN WATSON - Space guitar  (1954)
TTITLE10=RICHARD BERRY - Crazy lover  (1955)
TTITLE11=PROFESSOR LONGHAIR - Tipitina  (1954)
TTITLE12=FATS DOMINO - Ain't it a shame  (1955)
TTITLE13=SMILEY LEWIS - I hear you knocking  (1955)
TTITLE14=EDDIE BO - I'm wise  (1956)
TTITLE15=LITTLE RICHARD - Tutti frutti  (1955)
TTITLE16=BOBBY CHARLES - See you later, alligator  (1956)
TTITLE17=ROY MONTRELL - Mellow saxophone  (1956)
TTITLE18=LITTLE RICHARD - Lucille  (1956)
TTITLE19=FATS DOMINO - Blue monday  (1956)
TTITLE20=CLARENCE "FROGMAN" HENRY - Ain't got no home  (1956)
TTITLE21=CHUCK BERRY - Maybellene  (1955)
TTITLE22=BILL DOGGETT - Honky tonk part 1  (1956)
TTITLE23=SCREAMIN' JAY HAWKINS - I put a spell on you  (1956)
TTITLE24=MICKEY and SYLVIA - No good lover  (1956)
TTITLE25=CHUCK BERRY - Brown-eyed handsome man  (1956)
TTITLE26=BOBBY DAY - Little bitty pretty one  (1957)
TTITLE27=BIG "T" TYLER - King Kong  (1957)
TTITLE28=DALE HAWKINS - Susie Q  (1957)
EXTD=
EXTT0=
EXTT1=
EXTT2=
EXTT3=
EXTT4=
EXTT5=
EXTT6=
EXTT7=
EXTT8=
EXTT9=
EXTT10=
EXTT11=
EXTT12=
EXTT13=
EXTT14=
EXTT15=
EXTT16=
EXTT17=
EXTT18=
EXTT19=
EXTT20=
EXTT21=
EXTT22=
EXTT23=
EXTT24=
EXTT25=
EXTT26=
EXTT27=
EXTT28=
PLAYORDER=
